<svg width="32" height="32" viewBox="0 0 32 32" fill="none" xmlns="http://www.w3.org/2000/svg">
<path d="M12 28.4444C13.2273 28.4444 14.2222 27.4495 14.2222 26.2222C14.2222 24.9949 13.2273 24 12 24C10.7727 24 9.77777 24.9949 9.77777 26.2222C9.77777 27.4495 10.7727 28.4444 12 28.4444Z" fill="white"/>
<path d="M23.5555 28.4444C24.7828 28.4444 25.7778 27.4495 25.7778 26.2222C25.7778 24.9949 24.7828 24 23.5555 24C22.3282 24 21.3333 24.9949 21.3333 26.2222C21.3333 27.4495 22.3282 28.4444 23.5555 28.4444Z" fill="white"/>
<path d="M29.4222 5.68001C29.3394 5.57244 29.2331 5.48527 29.1114 5.42518C28.9896 5.36508 28.8558 5.33367 28.72 5.33334H8.18668L7.78668 4.06223C7.74274 3.92575 7.66644 3.80192 7.56429 3.70132C7.46213 3.60071 7.33715 3.5263 7.20002 3.48445L3.55557 2.36445C3.44351 2.33002 3.32576 2.31799 3.20906 2.32906C3.09235 2.34013 2.97896 2.37408 2.87537 2.42897C2.66616 2.53983 2.50956 2.72925 2.44002 2.95557C2.37047 3.18188 2.39368 3.42656 2.50453 3.63577C2.61539 3.84497 2.80481 4.00157 3.03113 4.07112L6.22224 5.0489L10.2933 17.9111L8.84446 19.1022L8.72891 19.2178C8.37059 19.6327 8.16759 20.1592 8.15461 20.7073C8.14164 21.2553 8.31951 21.7908 8.65779 22.2222C8.90007 22.5169 9.20793 22.7507 9.55676 22.9051C9.90559 23.0594 10.2857 23.13 10.6667 23.1111H25.5022C25.738 23.1111 25.9641 23.0175 26.1308 22.8508C26.2975 22.6841 26.3911 22.458 26.3911 22.2222C26.3911 21.9865 26.2975 21.7604 26.1308 21.5937C25.9641 21.427 25.738 21.3333 25.5022 21.3333H10.5245C10.4221 21.3298 10.3224 21.3 10.2349 21.2467C10.1475 21.1934 10.0752 21.1185 10.0252 21.0291C9.97513 20.9398 9.94897 20.839 9.94924 20.7366C9.9495 20.6342 9.97618 20.5336 10.0267 20.4445L12.1689 18.6667H25.8845C26.0875 18.6726 26.2865 18.6088 26.4482 18.4859C26.6099 18.3629 26.7247 18.1883 26.7733 17.9911L29.6178 6.43556C29.6448 6.30305 29.6413 6.16611 29.6074 6.03518C29.5735 5.90425 29.5102 5.78277 29.4222 5.68001V5.68001Z" fill="white"/>
</svg>
