<svg width="70" height="70" viewBox="0 0 70 70" fill="none" xmlns="http://www.w3.org/2000/svg">
<circle cx="35" cy="35" r="35" fill="white"/>
<path d="M41.45 25C42.1781 24.9994 42.8989 25.1441 43.5704 25.4257C44.2418 25.7074 44.8502 26.1202 45.36 26.64C46.4104 27.7064 46.9992 29.1432 46.9992 30.64C46.9992 32.1368 46.4104 33.5736 45.36 34.64L35 45.13L24.64 34.64C23.5896 33.5736 23.0008 32.1368 23.0008 30.64C23.0008 29.1432 23.5896 27.7064 24.64 26.64C25.1501 26.1206 25.7586 25.708 26.4299 25.4263C27.1012 25.1446 27.822 24.9996 28.55 24.9996C29.278 24.9996 29.9987 25.1446 30.6701 25.4263C31.3414 25.708 31.9499 26.1206 32.46 26.64L35 29.24L37.53 26.66C38.0382 26.134 38.6473 25.7159 39.3209 25.4306C39.9944 25.1454 40.7185 24.999 41.45 25V25ZM41.45 23C40.4556 22.9992 39.4711 23.1969 38.5541 23.5815C37.6371 23.9662 36.8062 24.53 36.11 25.24L35 26.36L33.89 25.24C33.1929 24.5313 32.3618 23.9684 31.445 23.5842C30.5282 23.2 29.5441 23.0021 28.55 23.0021C27.5559 23.0021 26.5718 23.2 25.655 23.5842C24.7382 23.9684 23.907 24.5313 23.21 25.24C21.7919 26.6836 20.9973 28.6264 20.9973 30.65C20.9973 32.6736 21.7919 34.6164 23.21 36.06L35 48L46.79 36.06C48.2081 34.6164 49.0027 32.6736 49.0027 30.65C49.0027 28.6264 48.2081 26.6836 46.79 25.24C46.0931 24.5309 45.262 23.9676 44.3452 23.5831C43.4284 23.1985 42.4442 23.0003 41.45 23V23Z" fill="#5A3C0F"/>
</svg>
